<svg xmlns="http://www.w3.org/2000/svg">
  <symbol id="icon-facebook" viewBox="0 0 24 24" xmlns="http://www.w3.org/2000/svg">
    <path d="M12 0C18.6274 0 24 5.37259 24 12C24 18.1352 19.3955 23.1944 13.4538 23.9121V15.667L16.7001 15.667L17.3734 12H13.4538V10.7031C13.4538 9.73417 13.6439 9.06339 14.0799 8.63483C14.5159 8.20627 15.1979 8.01993 16.1817 8.01993C16.4307 8.01993 16.6599 8.02241 16.8633 8.02736C17.1591 8.03456 17.4002 8.047 17.568 8.06467V4.74048C17.501 4.72184 17.4218 4.70321 17.3331 4.68486C17.1321 4.6433 16.8822 4.60324 16.6136 4.56806C16.0523 4.49453 15.4093 4.4423 14.9594 4.4423C13.1424 4.4423 11.7692 4.83102 10.8107 5.63619C9.65388 6.60791 9.10108 8.18622 9.10108 10.4199V12H6.62659V15.667H9.10108V23.6466C3.87432 22.3498 0 17.6277 0 12C0 5.37259 5.37259 0 12 0Z" />
  </symbol>

  <symbol id="icon-instagram" viewBox="0 0 24 24" xmlns="http://www.w3.org/2000/svg">
    <path d="M18.3952 7.02212C17.6005 7.02368 16.9543 6.3802 16.9528 5.58548C16.9512 4.79076 17.5947 4.14457 18.3898 4.14302C19.1848 4.14146 19.831 4.78531 19.8326 5.58004C19.8338 6.37476 19.1903 7.02057 18.3952 7.02212Z" />
    <path fill-rule="evenodd" clip-rule="evenodd" d="M12.0115 18.161C8.60909 18.1676 5.8451 15.4149 5.8385 12.0117C5.83188 8.60923 8.58536 5.84481 11.9878 5.8382C15.3909 5.83159 18.1553 8.5859 18.1619 11.9879C18.1685 15.3912 15.4143 18.1544 12.0115 18.161ZM11.992 8.00035C9.78365 8.00424 7.99594 9.79858 7.99983 12.0074C8.0041 14.2166 9.79882 16.0039 12.0072 15.9996C14.2164 15.9954 16.0041 14.2014 15.9998 11.9922C15.9955 9.78302 14.2008 7.99608 11.992 8.00035Z" />
    <path fill-rule="evenodd" clip-rule="evenodd" d="M4.1192 0.646479C4.88126 0.347876 5.75333 0.143362 7.03015 0.0830982C8.31011 0.0216726 8.71872 0.00767102 11.9769 0.00145262C15.2358 -0.00476578 15.6444 0.00766862 16.9244 0.0644334C18.2016 0.119643 19.0741 0.321049 19.8377 0.616544C20.6277 0.920974 21.298 1.33078 21.966 1.99603C22.6339 2.66205 23.0453 3.33002 23.3536 4.1189C23.6518 4.88174 23.8563 5.75306 23.917 7.03068C23.9776 8.31023 23.9924 8.71847 23.9986 11.9771C24.0048 15.2353 23.9916 15.6443 23.9356 16.925C23.88 18.2014 23.679 19.0743 23.3835 19.8375C23.0783 20.6276 22.6693 21.2979 22.004 21.9659C21.3388 22.6342 20.6701 23.0452 19.8812 23.3539C19.1184 23.6517 18.2471 23.8562 16.9702 23.9173C15.6903 23.9779 15.2817 23.9923 12.0224 23.9985C8.76459 24.0048 8.35598 23.9923 7.07605 23.9359C5.79882 23.88 4.92597 23.6789 4.16275 23.3838C3.37271 23.0782 2.70242 22.6696 2.03446 22.004C1.36611 21.3383 0.954386 20.67 0.646458 19.8811C0.347858 19.1186 0.144107 18.2469 0.0830727 16.9705C0.0220359 15.6901 0.00765506 15.2811 0.00143906 12.0229C-0.00480094 8.76435 0.00803667 8.35611 0.0640167 7.07616C0.1204 5.79855 0.320637 4.92606 0.61613 4.16206C0.921328 3.37239 1.33035 2.70248 1.99637 2.03413C2.6616 1.36616 3.33033 0.954017 4.1192 0.646479ZM4.94154 21.3679C5.36494 21.5308 6.00023 21.7252 7.17014 21.7761C8.43607 21.8309 8.81514 21.843 12.0185 21.8368C15.223 21.8309 15.6021 21.8173 16.8676 21.7579C18.0363 21.7022 18.6716 21.5055 19.0939 21.3407C19.6541 21.1218 20.0531 20.8601 20.4722 20.4406C20.8913 20.0195 21.1506 19.6194 21.3676 19.0591C21.5309 18.6354 21.7249 17.9996 21.7758 16.8297C21.8314 15.5646 21.8431 15.1851 21.8368 11.9809C21.831 8.77757 21.8174 8.3981 21.7572 7.13254C21.7019 5.96339 21.5056 5.32808 21.3404 4.90623C21.1215 4.34519 20.8606 3.94705 20.4399 3.52753C20.0192 3.10801 19.6191 2.84945 19.0581 2.6325C18.6355 2.46881 17.9994 2.27518 16.8303 2.22426C15.5643 2.16865 15.1849 2.15737 11.9808 2.1636C8.77743 2.16982 8.39836 2.18264 7.13281 2.24253C5.9633 2.29812 5.32877 2.49447 4.90575 2.65972C4.34587 2.87861 3.94696 3.13872 3.52746 3.5598C3.10871 3.98087 2.84938 4.38018 2.63244 4.94161C2.46993 5.36464 2.27434 6.00072 2.2242 7.16987C2.16898 8.43581 2.15733 8.81529 2.16355 12.0187C2.16939 15.2228 2.18298 15.6023 2.24248 16.8671C2.29729 18.037 2.49518 18.6715 2.65966 19.0949C2.87855 19.6544 3.13944 20.0533 3.55973 20.4729C3.98081 20.8908 4.38088 21.1509 4.94154 21.3679Z" />
  </symbol>

  <symbol id="icon-x" viewBox="0 0 22 21" xmlns="http://www.w3.org/2000/svg">
    <path d="M17.3263 0.903931H20.6998L13.3297 9.32742L22 20.7899H15.2112L9.89404 13.838L3.80995 20.7899H0.434432L8.31743 11.78L0 0.903931H6.96111L11.7674 7.25826L17.3263 0.903931ZM16.1423 18.7707H18.0116L5.94539 2.81706H3.93946L16.1423 18.7707Z" />
  </symbol>

  <symbol id="icon-pinterest" viewBox="0 0 24 24" xmlns="http://www.w3.org/2000/svg">
    <path d="M12 0C5.37284 0 0 5.37284 0 12C0 17.0864 3.16049 21.4321 7.62469 23.1802C7.51605 22.2321 7.42716 20.7704 7.6642 19.7333C7.88148 18.7951 9.06667 13.7679 9.06667 13.7679C9.06667 13.7679 8.71111 13.0469 8.71111 11.9901C8.71111 10.321 9.67901 9.07654 10.884 9.07654C11.9111 9.07654 12.4049 9.84691 12.4049 10.7654C12.4049 11.7926 11.7531 13.3333 11.4074 14.7654C11.121 15.9605 12.0099 16.9383 13.1852 16.9383C15.3185 16.9383 16.958 14.6864 16.958 11.4469C16.958 8.57284 14.8938 6.5679 11.9407 6.5679C8.52346 6.5679 6.51852 9.12593 6.51852 11.7728C6.51852 12.8 6.91358 13.9062 7.40741 14.5086C7.50617 14.6272 7.51605 14.7358 7.48642 14.8543C7.39753 15.2296 7.19012 16.0494 7.15062 16.2173C7.10123 16.4346 6.97284 16.484 6.74568 16.3753C5.24444 15.6741 4.30617 13.4914 4.30617 11.7235C4.30617 7.94074 7.05185 4.4642 12.237 4.4642C16.3951 4.4642 19.6346 7.42716 19.6346 11.3975C19.6346 15.5358 17.0272 18.8642 13.4123 18.8642C12.1975 18.8642 11.0519 18.2321 10.6667 17.4815C10.6667 17.4815 10.0642 19.7728 9.91605 20.3358C9.64938 21.3827 8.91852 22.6864 8.42469 23.4864C9.55062 23.8321 10.7358 24.0198 11.9802 24.0198C18.6074 24.0198 23.9802 18.6469 23.9802 12.0198C24 5.37284 18.6272 0 12 0Z" />
  </symbol>

  <symbol id="icon-rightArrow" viewBox="0 0 18 14" xmlns="http://www.w3.org/2000/svg">
    <path d="M1 7H17M17 7L11 13M17 7L11 1" stroke-linecap="round" stroke-linejoin="round"/>
  </symbol>

  <symbol id="icon-leftArrow" viewBox="0 0 18 14" xmlns="http://www.w3.org/2000/svg">
    <path d="M17 7H1M1 7L7 13M1 7L7 1" stroke-linecap="round" stroke-linejoin="round" />
  </symbol>

  <symbol id="icon-viewMore" viewBox="0 0 100 100" xmlns="http://www.w3.org/2000/svg">
    <g filter="url(#filter0_b_3032_35)">
      <path fill-rule="evenodd" clip-rule="evenodd" d="M50 100C77.6142 100 100 77.6142 100 50C100 22.3858 77.6142 0 50 0C22.3858 0 0 22.3858 0 50C0 77.6142 22.3858 100 50 100ZM66 30L37.4286 30V38H56.3431L31.1716 63.1716L36.8284 68.8284L62 43.6569V62.5714H70V34C70 31.7909 68.2091 30 66 30Z" />
    </g>
    <defs>
      <filter x="-6" y="-6" width="112" height="112" filterUnits="userSpaceOnUse" color-interpolation-filters="sRGB">
        <feFlood flood-opacity="0" result="BackgroundImageFix" />
        <feGaussianBlur in="BackgroundImageFix" stdDeviation="3" />
        <feComposite in2="SourceAlpha" operator="in" result="effect1_backgroundBlur_3032_35" />
        <feBlend mode="normal" in="SourceGraphic" in2="effect1_backgroundBlur_3032_35" result="shape" />
      </filter>
    </defs>
  </symbol>

  <symbol id="icon-adventage-circles" viewBox="0 0 24 24" xmlns="http://www.w3.org/2000/svg">
    <path d="M12 0C18.627 0 24 5.373 24 12C24 18.627 18.627 24 12 24C5.373 24 0 18.627 0 12C0 5.373 5.373 0 12 0ZM12 19.826C13.0383 19.8426 14.0694 19.6524 15.0335 19.2666C15.9975 18.8808 16.8751 18.3069 17.6152 17.5786C18.3553 16.8502 18.9431 15.9819 19.3443 15.0241C19.7455 14.0664 19.9521 13.0384 19.9521 12C19.9521 10.9616 19.7455 9.93361 19.3443 8.97586C18.9431 8.01812 18.3553 7.14977 17.6152 6.42142C16.8751 5.69306 15.9975 5.11925 15.0335 4.73341C14.0694 4.34756 13.0383 4.1574 12 4.174C9.94608 4.20684 7.9874 5.0458 6.54653 6.50989C5.10566 7.97398 4.29811 9.94582 4.29811 12C4.29811 14.0542 5.10566 16.026 6.54653 17.4901C7.9874 18.9542 9.94608 19.7932 12 19.826ZM12 15.841C10.9816 15.841 10.0048 15.4364 9.28471 14.7163C8.56457 13.9962 8.16 13.0194 8.16 12.001C8.16 10.9826 8.56457 10.0058 9.28471 9.28571C10.0048 8.56557 10.9816 8.161 12 8.161C13.0184 8.161 13.9952 8.56557 14.7153 9.28571C15.4354 10.0058 15.84 10.9826 15.84 12.001C15.84 13.0194 15.4354 13.9962 14.7153 14.7163C13.9952 15.4364 13.0184 15.841 12 15.841Z" />
  </symbol>

  <symbol id="icon-adventage-star" viewBox="0 0 20 20" xmlns="http://www.w3.org/2000/svg">
    <path d="M9.07203 1.31085C9.40793 0.474381 10.5921 0.47438 10.928 1.31085L12.8696 6.1458C13.0126 6.502 13.3469 6.74489 13.7299 6.77086L18.9282 7.12333C19.8275 7.18431 20.1934 8.3105 19.5017 8.88844L15.5034 12.2291C15.2088 12.4752 15.0811 12.8682 15.1747 13.2404L16.4459 18.2932C16.6658 19.1674 15.7078 19.8634 14.9444 19.3841L10.5317 16.6138C10.2066 16.4097 9.79339 16.4097 9.46829 16.6138L5.05561 19.3841C4.29219 19.8634 3.3342 19.1674 3.55411 18.2932L4.82525 13.2404C4.9189 12.8682 4.79121 12.4752 4.49664 12.2291L0.498312 8.88844C-0.193418 8.3105 0.172501 7.18431 1.07183 7.12333L6.27012 6.77086C6.6531 6.74489 6.9874 6.502 7.13045 6.1458L9.07203 1.31085Z" />
  </symbol>

  <symbol id="icon-adventage-file" viewBox="0 0 16 20" xmlns="http://www.w3.org/2000/svg">
    <path d="M9 7V1.5L14.5 7M2 0C0.89 0 0 0.89 0 2V18C0 18.5304 0.210714 19.0391 0.585786 19.4142C0.960859 19.7893 1.46957 20 2 20H14C14.5304 20 15.0391 19.7893 15.4142 19.4142C15.7893 19.0391 16 18.5304 16 18V6L10 0H2Z" />
  </symbol>

  <symbol id="icon-adventage-people" viewBox="0 0 20 20" xmlns="http://www.w3.org/2000/svg">
    <path d="M13.0004 3.3999C13.0004 4.19555 12.6843 4.95861 12.1217 5.52122C11.5591 6.08383 10.796 6.3999 10.0004 6.3999C9.20474 6.3999 8.44168 6.08383 7.87907 5.52122C7.31646 4.95861 7.00039 4.19555 7.00039 3.3999C7.00039 2.60425 7.31646 1.84119 7.87907 1.27858C8.44168 0.715973 9.20474 0.399902 10.0004 0.399902C10.796 0.399902 11.5591 0.715973 12.1217 1.27858C12.6843 1.84119 13.0004 2.60425 13.0004 3.3999ZM19.0004 3.9999C19.0004 4.63642 18.7475 5.24687 18.2974 5.69696C17.8474 6.14705 17.2369 6.3999 16.6004 6.3999C15.9639 6.3999 15.3534 6.14705 14.9033 5.69696C14.4532 5.24687 14.2004 4.63642 14.2004 3.9999C14.2004 3.36338 14.4532 2.75293 14.9033 2.30285C15.3534 1.85276 15.9639 1.5999 16.6004 1.5999C17.2369 1.5999 17.8474 1.85276 18.2974 2.30285C18.7475 2.75293 19.0004 3.36338 19.0004 3.9999ZM3.40039 6.3999C4.03691 6.3999 4.64736 6.14705 5.09745 5.69696C5.54753 5.24687 5.80039 4.63642 5.80039 3.9999C5.80039 3.36338 5.54753 2.75293 5.09745 2.30285C4.64736 1.85276 4.03691 1.5999 3.40039 1.5999C2.76387 1.5999 2.15342 1.85276 1.70333 2.30285C1.25325 2.75293 1.00039 3.36338 1.00039 3.9999C1.00039 4.63642 1.25325 5.24687 1.70333 5.69696C2.15342 6.14705 2.76387 6.3999 3.40039 6.3999ZM5.20039 9.0999C5.20039 8.2719 5.87239 7.5999 6.70039 7.5999H13.3004C14.1284 7.5999 14.8004 8.2719 14.8004 9.0999V14.7999C14.8004 16.0729 14.2947 17.2938 13.3945 18.194C12.4943 19.0942 11.2734 19.5999 10.0004 19.5999C8.72735 19.5999 7.50645 19.0942 6.60628 18.194C5.7061 17.2938 5.20039 16.0729 5.20039 14.7999V9.0999ZM4.00039 9.0999C4.00039 8.5443 4.16839 8.0295 4.45519 7.5999H1.90039C1.07239 7.5999 0.400391 8.2719 0.400391 9.0999V13.5999C0.400335 14.1136 0.510237 14.6215 0.722713 15.0892C0.935188 15.5569 1.24532 15.9738 1.63226 16.3117C2.0192 16.6497 2.47399 16.9009 2.96607 17.0485C3.45815 17.1961 3.97613 17.2367 4.48519 17.1675C4.16468 16.4194 3.99973 15.6138 4.00039 14.7999V9.0999ZM16.0004 14.7999C16.0004 15.6399 15.8276 16.4415 15.5156 17.1675C15.674 17.1891 15.8356 17.1999 16.0004 17.1999C16.9552 17.1999 17.8708 16.8206 18.546 16.1455C19.2211 15.4704 19.6004 14.5547 19.6004 13.5999V9.0999C19.6004 8.2719 18.9284 7.5999 18.1004 7.5999H15.5456C15.8336 8.0295 16.0004 8.5443 16.0004 9.0999V14.7999Z" />
  </symbol>

  <symbol id="icon-bestseller-1" viewBox="0 0 16 16" xmlns="http://www.w3.org/2000/svg">
    <path d="M0.616 1.23001C0.441334 1.23001 0.295 1.17134 0.177 1.05401C0.059 0.936005 0 0.790006 0 0.616006C0 0.441339 0.059 0.295006 0.177 0.177006C0.295 0.0590056 0.441334 5.58659e-06 0.616 5.58659e-06C0.790667 5.58659e-06 0.936667 0.0590056 1.054 0.177006C1.17133 0.295006 1.23033 0.441339 1.231 0.616006C1.23167 0.790672 1.17267 0.936672 1.054 1.05401C0.935333 1.17134 0.789 1.23034 0.615 1.23101M4.308 1.23101C4.13333 1.23101 3.987 1.17201 3.869 1.05401C3.751 0.936005 3.692 0.790006 3.692 0.616006C3.692 0.442006 3.751 0.295672 3.869 0.177006C3.987 0.058339 4.13333 -0.00066108 4.308 5.58659e-06C4.48267 0.000672253 4.62867 0.0596723 4.746 0.177006C4.86333 0.294339 4.92233 0.440672 4.923 0.616006C4.92367 0.791339 4.86467 0.937339 4.746 1.05401C4.62733 1.17067 4.48133 1.22967 4.308 1.23101ZM8 1.23101C7.826 1.23101 7.68 1.17201 7.562 1.05401C7.444 0.936005 7.385 0.790006 7.385 0.616006C7.385 0.442006 7.444 0.295672 7.562 0.177006C7.68 0.058339 7.826 -0.00066108 8 5.58659e-06C8.174 0.000672253 8.32033 0.0596723 8.439 0.177006C8.55767 0.294339 8.61633 0.440672 8.615 0.616006C8.61367 0.791339 8.55467 0.937339 8.438 1.05401C8.32133 1.17067 8.17533 1.23034 8 1.23101ZM0.616 4.92301C0.441334 4.92301 0.295 4.86401 0.177 4.74601C0.059 4.62801 0 4.48201 0 4.30801C0 4.13401 0.059 3.98767 0.177 3.86901C0.295 3.75034 0.441334 3.69134 0.616 3.69201C0.790667 3.69267 0.936667 3.75167 1.054 3.86901C1.17133 3.98634 1.23033 4.13267 1.231 4.30801C1.23167 4.48334 1.17267 4.62934 1.054 4.74601C0.935333 4.86267 0.789 4.92167 0.615 4.92301M0.615 8.61601C0.441 8.61601 0.295 8.55701 0.177 8.43901C0.059 8.31967 0 8.17334 0 8.00001C0 7.82667 0.059 7.68067 0.177 7.56201C0.295 7.44334 0.441334 7.38434 0.616 7.38501C0.790667 7.38567 0.936667 7.44467 1.054 7.56201C1.17133 7.67934 1.23033 7.82534 1.231 8.00001C1.23167 8.17467 1.17267 8.32101 1.054 8.43901C0.935333 8.55701 0.789 8.61567 0.615 8.61501M15.385 8.61501C15.2103 8.61501 15.064 8.55601 14.946 8.43801C14.828 8.32001 14.7693 8.17401 14.77 8.00001C14.7707 7.82601 14.8297 7.68001 14.947 7.56201C15.0643 7.44401 15.2103 7.38501 15.385 7.38501C15.5597 7.38501 15.706 7.44401 15.824 7.56201C15.942 7.68001 16.0007 7.82601 16 8.00001C15.9993 8.17401 15.9403 8.32034 15.823 8.43901C15.7057 8.55767 15.5597 8.61634 15.385 8.61501ZM15.385 12.308C15.2103 12.308 15.064 12.249 14.946 12.131C14.828 12.013 14.769 11.8667 14.769 11.692C14.769 11.5173 14.828 11.3713 14.946 11.254C15.064 11.1367 15.21 11.0777 15.384 11.077C15.5587 11.077 15.705 11.136 15.823 11.254C15.941 11.372 16 11.518 16 11.692C16 11.866 15.941 12.0123 15.823 12.131C15.705 12.2497 15.559 12.3087 15.385 12.308ZM8 16C7.826 16 7.68 15.941 7.562 15.823C7.444 15.705 7.385 15.559 7.385 15.385C7.385 15.211 7.444 15.0647 7.562 14.946C7.68 14.8273 7.826 14.7683 8 14.769C8.174 14.7697 8.32033 14.8287 8.439 14.946C8.55767 15.0633 8.61633 15.2093 8.615 15.384C8.615 15.5587 8.556 15.705 8.438 15.823C8.32 15.941 8.174 16 8 16ZM11.692 16C11.518 16 11.372 15.941 11.254 15.823C11.136 15.705 11.077 15.559 11.077 15.385C11.077 15.211 11.136 15.0647 11.254 14.946C11.372 14.8273 11.518 14.7683 11.692 14.769C11.866 14.7697 12.0123 14.8287 12.131 14.946C12.2497 15.0633 12.3087 15.2093 12.308 15.384C12.3073 15.5587 12.2483 15.705 12.131 15.823C12.0137 15.941 11.8673 16 11.692 16ZM15.384 16C15.21 16 15.064 15.941 14.946 15.823C14.828 15.705 14.769 15.559 14.769 15.385C14.769 15.211 14.828 15.0647 14.946 14.946C15.064 14.8273 15.21 14.7683 15.384 14.769C15.558 14.7697 15.7043 14.8287 15.823 14.946C15.9417 15.0633 16.0007 15.2093 16 15.384C16 15.5587 15.941 15.705 15.823 15.823C15.705 15.941 15.558 16 15.384 16ZM15 4.42301V1.61601C15 1.43601 14.9423 1.28834 14.827 1.17301C14.7117 1.05767 14.5643 1.00001 14.385 1.00001H11.577C11.4357 1.00001 11.317 0.952006 11.221 0.856006C11.125 0.760006 11.077 0.641006 11.077 0.499006C11.077 0.357006 11.125 0.238339 11.221 0.143006C11.317 0.0476724 11.4357 5.58659e-06 11.577 5.58659e-06H14.385C14.829 5.58659e-06 15.209 0.158339 15.525 0.475005C15.841 0.791672 15.9993 1.17167 16 1.61501V4.42301C16 4.56501 15.952 4.68367 15.856 4.77901C15.76 4.87434 15.641 4.92234 15.499 4.92301C15.357 4.92367 15.2383 4.87567 15.143 4.77901C15.0477 4.68234 15 4.56367 15 4.42301ZM0 14.385V11.577C0 11.435 0.0480001 11.3163 0.144 11.221C0.24 11.1257 0.359 11.0777 0.501 11.077C0.643 11.0763 0.761667 11.1243 0.857 11.221C0.952333 11.3177 1 11.4363 1 11.577V14.384C1 14.564 1.05767 14.7117 1.173 14.827C1.28833 14.9423 1.436 15 1.616 15H4.423C4.565 15 4.68367 15.048 4.779 15.144C4.87433 15.24 4.92233 15.359 4.923 15.501C4.92367 15.643 4.87567 15.7617 4.779 15.857C4.68233 15.9523 4.56367 16 4.423 16H1.616C1.17133 16 0.791 15.8417 0.475 15.525C0.159 15.2083 0.000666667 14.8283 0 14.385Z" />
  </symbol>

  <symbol id="icon-bestseller-2" viewBox="0 0 20 16" xmlns="http://www.w3.org/2000/svg">
    <path d="M1 15V10.1C1.00217 9.35807 1.29462 8.64715 1.81348 8.12252C2.33235 7.5979 3.03545 7.30219 3.76923 7.3H16.2308C16.9645 7.30219 17.6677 7.5979 18.1865 8.12252C18.7054 8.64715 18.9978 9.35807 19 10.1V15M15.5385 7.3H3.07692V2.75C3.07829 2.2863 3.26108 1.84198 3.58537 1.51409C3.90965 1.1862 4.34909 1.00138 4.80769 1H15.1923C15.6509 1.00138 16.0903 1.1862 16.4146 1.51409C16.7389 1.84198 16.9217 2.2863 16.9231 2.75V7.3H15.5385Z" stroke-width="0.933333" stroke-linecap="round" stroke-linejoin="round" />
  </symbol>

  <symbol id="icon-bestseller-3" viewBox="0 0 20 18" xmlns="http://www.w3.org/2000/svg">
    <path d="M4.6 16.1112L3.7 17M15.4 16.1112L16.3 17M1.9 9.00065V9.88947C1.9 12.8226 1.9 14.2891 2.8225 15.2001C3.745 16.1112 5.23 16.1112 8.2 16.1112H11.8C14.77 16.1112 16.255 16.1112 17.1775 15.2001C18.1 14.2891 18.1 12.8226 18.1 9.88947V9.00065M1 9.00065H19M2.8 9.00065V3.24379C2.79968 2.70445 2.99621 2.18306 3.35355 1.77519C3.7109 1.36733 4.20512 1.10032 4.74563 1.0231C5.28614 0.945891 5.83672 1.06365 6.29644 1.35479C6.75617 1.64594 7.09425 2.09096 7.2487 2.60829L7.3 2.77894M6.4 3.66776L8.65 1.89013" stroke-linecap="round" stroke-linejoin="round" />
  </symbol>

  <symbol id="icon-play" viewBox="0 0 80 80" fill="none" xmlns="http://www.w3.org/2000/svg">
    <g filter="url(#filter0_b_43_623)">
      <path fill-rule="evenodd" clip-rule="evenodd" d="M40 80C50.6087 80 60.7828 75.7857 68.2843 68.2843C75.7857 60.7828 80 50.6087 80 40C80 29.3913 75.7857 19.2172 68.2843 11.7157C60.7828 4.21427 50.6087 0 40 0C29.3913 0 19.2172 4.21427 11.7157 11.7157C4.21427 19.2172 0 29.3913 0 40C0 50.6087 4.21427 60.7828 11.7157 68.2843C19.2172 75.7857 29.3913 80 40 80ZM37.775 25.84C37.022 25.3376 36.1467 25.0491 35.2426 25.0051C34.3384 24.9612 33.4393 25.1636 32.6412 25.5906C31.843 26.0177 31.1758 26.6534 30.7106 27.43C30.2455 28.2065 29.9999 29.0948 30 30V50C29.9999 50.9052 30.2455 51.7935 30.7106 52.57C31.1758 53.3466 31.843 53.9823 32.6412 54.4094C33.4393 54.8364 34.3384 55.0388 35.2426 54.9949C36.1467 54.9509 37.022 54.6624 37.775 54.16L52.775 44.16C53.4598 43.7034 54.0213 43.0848 54.4096 42.3591C54.7979 41.6334 55.0011 40.8231 55.0011 40C55.0011 39.1769 54.7979 38.3666 54.4096 37.6409C54.0213 36.9152 53.4598 36.2966 52.775 35.84L37.775 25.84Z" fill="url(#paint0_linear_43_623)" />
      <path d="M53.0524 44.576L53.0524 44.576L38.0525 54.5759C38.0525 54.576 38.0524 54.576 38.0524 54.576C37.2241 55.1286 36.2613 55.446 35.2668 55.4943C34.2723 55.5426 33.2833 55.32 32.4053 54.8502C31.5273 54.3805 30.7934 53.6812 30.2817 52.827C29.77 51.9728 29.4999 50.9957 29.5 50L53.0524 44.576ZM53.0524 44.576C53.8057 44.0737 54.4233 43.3933 54.8505 42.595C55.2776 41.7967 55.5011 40.9054 55.5011 40C55.5011 39.0946 55.2776 38.2033 54.8505 37.405C54.4233 36.6067 53.8057 35.9263 53.0524 35.424L53.0524 35.424M53.0524 44.576L53.0524 35.424M53.0524 35.424L38.0525 25.4241C38.0525 25.424 38.0524 25.424 38.0524 25.424M53.0524 35.424L38.0524 25.424M38.0524 25.424C37.2241 24.8714 36.2613 24.554 35.2668 24.5057M38.0524 25.424L35.2668 24.5057M35.2668 24.5057C34.2723 24.4574 33.2833 24.68 32.4053 25.1498M35.2668 24.5057L32.4053 25.1498M32.4053 25.1498C31.5273 25.6195 30.7934 26.3188 30.2817 27.173M32.4053 25.1498L30.2817 27.173M30.2817 27.173C29.77 28.0272 29.4999 29.0043 29.5 30M30.2817 27.173L29.5 30M29.5 30C29.5 30 29.5 30 29.5 30.0001M29.5 30V30.0001M29.5 30.0001V49.9999V30.0001ZM67.9307 67.9307C60.523 75.3384 50.4761 79.5 40 79.5C29.5239 79.5 19.477 75.3384 12.0693 67.9307C4.6616 60.523 0.5 50.4761 0.5 40C0.5 29.5239 4.6616 19.477 12.0693 12.0693C19.477 4.6616 29.5239 0.5 40 0.5C50.4761 0.5 60.523 4.6616 67.9307 12.0693C75.3384 19.477 79.5 29.5239 79.5 40C79.5 50.4761 75.3384 60.523 67.9307 67.9307Z" stroke="url(#paint1_linear_43_623)" />
    </g>
    <defs>
      <filter id="filter0_b_43_623" x="-6" y="-6" width="92" height="92" filterUnits="userSpaceOnUse" color-interpolation-filters="sRGB">
        <feFlood flood-opacity="0" result="BackgroundImageFix" />
        <feGaussianBlur in="BackgroundImageFix" stdDeviation="3" />
        <feComposite in2="SourceAlpha" operator="in" result="effect1_backgroundBlur_43_623" />
        <feBlend mode="normal" in="SourceGraphic" in2="effect1_backgroundBlur_43_623" result="shape" />
      </filter>
      <linearGradient id="paint0_linear_43_623" x1="16.4" y1="7.2" x2="58.8" y2="76.4" gradientUnits="userSpaceOnUse">
        <stop stop-color="white" stop-opacity="0.8" />
        <stop offset="1" stop-color="white" stop-opacity="0.4" />
      </linearGradient>
      
    </defs>
  </symbol>

  <symbol id="icon-viewMore-linearGradient" viewBox="0 0 100 100" fill="none" xmlns="http://www.w3.org/2000/svg">
    <g filter="url(#filter0_b_3051_116)">
      <path fill-rule="evenodd" clip-rule="evenodd" d="M50 100C77.6142 100 100 77.6142 100 50C100 22.3858 77.6142 0 50 0C22.3858 0 0 22.3858 0 50C0 77.6142 22.3858 100 50 100ZM66 30L37.4286 30V38H56.3431L31.1716 63.1716L36.8284 68.8284L62 43.6569V62.5714H70V34C70 31.7909 68.2091 30 66 30Z" fill="url(#paint0_linear_3051_116)" />
      <path d="M37.4286 29.5H36.9286V30V38V38.5H37.4286H55.136L30.818 62.818L30.4645 63.1716L30.818 63.5251L36.4749 69.182L36.8284 69.5355L37.182 69.182L61.5 44.864V62.5714V63.0714H62H70H70.5V62.5714V34C70.5 31.5147 68.4853 29.5 66 29.5L37.4286 29.5ZM99.5 50C99.5 77.3381 77.3381 99.5 50 99.5C22.6619 99.5 0.5 77.3381 0.5 50C0.5 22.6619 22.6619 0.5 50 0.5C77.3381 0.5 99.5 22.6619 99.5 50Z" stroke="url(#paint1_linear_3051_116)" />
    </g>
    <defs>
      <filter id="filter0_b_3051_116" x="-6" y="-6" width="112" height="112" filterUnits="userSpaceOnUse" color-interpolation-filters="sRGB">
        <feFlood flood-opacity="0" result="BackgroundImageFix" />
        <feGaussianBlur in="BackgroundImageFix" stdDeviation="3" />
        <feComposite in2="SourceAlpha" operator="in" result="effect1_backgroundBlur_3051_116" />
        <feBlend mode="normal" in="SourceGraphic" in2="effect1_backgroundBlur_3051_116" result="shape" />
      </filter>
      <linearGradient id="paint0_linear_3051_116" x1="20.5" y1="9" x2="73.5" y2="95.5" gradientUnits="userSpaceOnUse">
        <stop stop-color="white" stop-opacity="0.8" />
        <stop offset="1" stop-color="white" stop-opacity="0.4" />
      </linearGradient>
      <linearGradient id="paint1_linear_3051_116" x1="28" y1="5.5" x2="71" y2="100" gradientUnits="userSpaceOnUse">
        <stop stop-color="white" stop-opacity="0.8" />
        <stop offset="1" stop-color="#8A91A7" stop-opacity="0.6" />
      </linearGradient>
    </defs>
  </symbol>

  <symbol id="icon-arrow-top" viewBox="0 0 12 12" xmlns="http://www.w3.org/2000/svg">
    <path d="M11 9.92857L11 1M11 1L2.07143 1M11 1L1 11" stroke-width="1.5" stroke-linejoin="round" />
  </symbol>

  <symbol id="icon-lines" viewBox="0 0 14 8" xmlns="http://www.w3.org/2000/svg">
    <path d="M1 1H13M3 4H11M5 7H9" stroke-linecap="round" stroke-linejoin="round" />
  </symbol>
</svg>